<?xml version="1.0" encoding="utf-8"?>
<!-- Generator: Adobe Illustrator 17.1.0, SVG Export Plug-In . SVG Version: 6.00 Build 0)  -->
<!DOCTYPE svg PUBLIC "-//W3C//DTD SVG 1.1//EN" "http://www.w3.org/Graphics/SVG/1.1/DTD/svg11.dtd">
<svg version="1.1" id="_x34__1_" xmlns="http://www.w3.org/2000/svg" xmlns:xlink="http://www.w3.org/1999/xlink" x="0px" y="0px"
	 viewBox="0 0 500 500" enable-background="new 0 0 500 500" xml:space="preserve">
<g id="_x34_">
	<path d="M143.6,450.6c-5.5,0-12.2-3.9-15-8.7L22.7,258.2c-2.7-4.8-2.7-12.6,0-17.3L129.1,57.4c2.8-4.8,9.5-8.6,15-8.6L356.4,49
		c5.5,0,12.2,3.9,15,8.7l105.9,183.7c2.7,4.8,2.7,12.6,0,17.3L370.9,442.2c-2.8,4.8-9.5,8.6-15,8.6L143.6,450.6z"/>
	<path fill="none" stroke="#000000" stroke-width="40" stroke-miterlimit="10" d="M183.6,450.6c-27.5,0-61.2-19.6-75-43.4
		L42.7,292.8C29,269,29,230,42.8,206.2L109,92c13.8-23.8,47.6-43.2,75.1-43.2l132.2,0.2c27.5,0,61.2,19.6,75,43.4l65.9,114.4
		c13.7,23.8,13.7,62.8-0.1,86.6L391,407.6c-13.8,23.8-47.6,43.2-75.1,43.2L183.6,450.6z"/>
</g>
</svg>
